# xmcd CD database file
#
# Track frame offsets:
# 150
# 14210
# 26087
# 40777
# 52677
# 65415
# 80045
# 92015
# 112675
# 122477
# 139055
# 154255
# 169702
# 187682
# 200355
# 212137
# 230922
# 256232
#
# Disc length: 3585 seconds
# Revision: 3
# Processed by: cddbd v1.5.2PL0 Copyright (c) Steve Scherf et al.
# Submitted via: MusicBin 0.4
#
DISCID=ee0dff12
DTITLE=Freddie King - Ultimate Collection
DYEAR=2001
DGENRE=Blues
TTITLE0=Have You Ever Loved A Woman
TTITLE1=Hide Away
TTITLE2=You've Got To Love Her With A Feeling
TTITLE3=San-Ho-Zay
TTITLE4=Lonesome Whistle Blues
TTITLE5=The Stumble
TTITLE6=I'm Tore Down
TTITLE7=Someday After Awhile (You'll Be Sorry)
TTITLE8=My Feeling For The Blues
TTITLE9=Palace Of The King
TTITLE10=Going Down
TTITLE11=Key To The Highway
TTITLE12=Big Legged Woman
TTITLE13=Woman Across The River
TTITLE14=Dust My Broom (Solo Acoustic)
TTITLE15=Pack It Up
TTITLE16=Tain't Nobodys Bizness If I Do (Live)
TTITLE17=Sugar Sweet
EXTD=YEAR: 2001
EXTT0=YEAR: 1960
EXTT1=YEAR: 1960
EXTT2=YEAR: 1960
EXTT3=YEAR: 1961
EXTT4=YEAR: 1961
EXTT5=YEAR: 1961
EXTT6=YEAR: 1961
EXTT7=YEAR: 1962
EXTT8=YEAR: 1969
EXTT9=YEAR: 1970
EXTT10=YEAR: 1970
EXTT11=YEAR: 1970
EXTT12=YEAR: 1972
EXTT13=YEAR: 1973
EXTT14=YEAR: 1974
EXTT15=YEAR: 1974
EXTT16=YEAR: 1975
EXTT17=YEAR: 1974
PLAYORDER=
